<svg width="52" height="46" viewBox="0 0 52 46" fill="none" xmlns="http://www.w3.org/2000/svg">
<rect width="52" height="46" rx="4" fill="#5956E9"/>
<g clip-path="url(#clip0_43_1204)">
<path d="M17 23.9996H23V21.9996H17V12.8456C17 12.7587 17.0227 12.6734 17.0657 12.5979C17.1088 12.5224 17.1708 12.4595 17.2456 12.4153C17.3204 12.3711 17.4054 12.3471 17.4923 12.3458C17.5791 12.3444 17.6649 12.3657 17.741 12.4076L36.203 22.5616C36.2814 22.6048 36.3468 22.6682 36.3923 22.7452C36.4378 22.8223 36.4618 22.9101 36.4618 22.9996C36.4618 23.0891 36.4378 23.177 36.3923 23.254C36.3468 23.331 36.2814 23.3945 36.203 23.4376L17.741 33.5916C17.6649 33.6335 17.5791 33.6548 17.4923 33.6535C17.4054 33.6521 17.3204 33.6282 17.2456 33.584C17.1708 33.5397 17.1088 33.4768 17.0657 33.4013C17.0227 33.3259 17 33.2405 17 33.1536V23.9996Z" fill="white"/>
</g>
<defs>
<clipPath id="clip0_43_1204">
<rect width="24" height="24" fill="white" transform="translate(14 11)"/>
</clipPath>
</defs>
</svg>
